<svg xmlns="http://www.w3.org/2000/svg" xmlns:xlink="http://www.w3.org/1999/xlink" width="794" zoomAndPan="magnify" viewBox="0 0 594.95996 842.24997" height="1123" preserveAspectRatio="xMidYMid meet" version="1.2"><defs><clipPath id="dff27ffa13"><path d="M 0.246094 1.828125 L 594.675781 1.828125 L 594.675781 569 L 0.246094 569 Z M 0.246094 1.828125 "/></clipPath><clipPath id="6208e07370"><path d="M 26 402 L 198 402 L 198 574.410156 L 26 574.410156 Z M 26 402 "/></clipPath></defs><g id="23bc0381db"><g clip-rule="nonzero" clip-path="url(#dff27ffa13)"><path style=" stroke:none;fill-rule:nonzero;fill:#000000;fill-opacity:1;" d="M 170.917969 85.378906 C 153.789062 132.835938 154.980469 178.183594 174.492188 221.515625 C 196.019531 281.429688 231.839844 323.847656 281.769531 348.949219 C 378.605469 397.59375 470.675781 382.570312 557.800781 303.785156 C 560.363281 301.402344 563.753906 300.121094 567.144531 300.027344 C 578.136719 299.753906 586.566406 303.96875 592.519531 312.945312 C 596.1875 318.441406 596.1875 327.054688 592.519531 338.597656 C 576.214844 390.359375 550.289062 436.257812 514.832031 476.109375 C 479.5625 515.5 436.597656 542.617188 385.933594 557 C 319.421875 576.058594 251.628906 570.652344 182.460938 540.96875 C 178.15625 539.230469 177.972656 536.9375 181.636719 534.191406 L 218.375 506.980469 C 220.117188 505.699219 222.222656 505.148438 224.421875 505.425781 C 244.300781 508.171875 266.929688 510.371094 292.488281 512.203125 C 341.042969 515.59375 386.117188 505.972656 427.710938 483.070312 C 432.015625 483.070312 433.664062 481.695312 432.839844 479.039062 C 462.246094 461.175781 484.601562 440.105469 499.902344 416.101562 C 507.503906 404.285156 504.757812 401.078125 491.929688 406.664062 C 414.519531 440.195312 337.5625 436.714844 260.882812 396.496094 C 231.199219 380.921875 202.984375 357.101562 176.234375 324.945312 C 129.234375 268.421875 109.90625 201.636719 118.148438 124.40625 C 119.433594 113.046875 116.5 111.945312 109.539062 121.015625 C 46.601562 202.550781 36.066406 290.042969 77.839844 383.578125 C 79.582031 387.609375 78.757812 391.089844 75.277344 393.65625 L 45.960938 415.367188 C 43.394531 417.199219 41.289062 416.835938 39.636719 414.085938 C 13.527344 372.402344 0.519531 333.464844 0.246094 297.28125 C 0.152344 287.203125 1.160156 269.15625 3.359375 243.046875 C 4.734375 225.914062 8.488281 208.230469 14.71875 190.183594 C 40.1875 116.160156 85.902344 55.789062 151.679688 8.972656 C 156.078125 5.949219 160.382812 3.84375 164.871094 2.835938 C 171.285156 1.277344 176.324219 1.554688 179.804688 3.753906 C 192.082031 11.171875 196.84375 26.472656 191.164062 39.574219 L 170.917969 85.472656 Z M 170.917969 85.378906 "/></g><g clip-rule="nonzero" clip-path="url(#6208e07370)"><path style=" stroke:none;fill-rule:nonzero;fill:#000000;fill-opacity:1;" d="M 145.816406 454.671875 C 153.328125 462.089844 170.460938 472.351562 197.304688 485.542969 C 198.128906 486.003906 198.21875 487.007812 197.488281 487.558594 C 191.164062 492.597656 184.113281 496.71875 176.414062 499.925781 C 147.007812 512.292969 125.9375 540.511719 118.515625 571.292969 C 117.601562 574.957031 112.652344 575.597656 110.820312 572.300781 C 101.019531 555.261719 95.613281 537.761719 79.214844 521.457031 C 62.90625 505.058594 45.410156 499.652344 28.371094 489.941406 C 25.070312 488.109375 25.621094 483.070312 29.285156 482.246094 C 60.066406 474.640625 88.285156 453.664062 100.652344 424.164062 C 103.859375 416.46875 107.890625 409.414062 112.929688 403 C 113.476562 402.269531 114.578125 402.359375 114.945312 403.183594 C 128.136719 429.933594 138.578125 447.066406 145.910156 454.578125 Z M 145.816406 454.671875 "/></g></g></svg>