<svg xmlns="http://www.w3.org/2000/svg" xmlns:xlink="http://www.w3.org/1999/xlink" width="794" zoomAndPan="magnify" viewBox="0 0 594.95996 842.24997" height="1123" preserveAspectRatio="xMidYMid meet" version="1.2"><defs><clipPath id="512cc442e9"><path d="M 505 267 L 594.675781 267 L 594.675781 328 L 505 328 Z M 505 267 "/></clipPath><clipPath id="16d3bf8c71"><path d="M 267 505 L 328 505 L 328 594.96875 L 267 594.96875 Z M 267 505 "/></clipPath><clipPath id="bab6b5eabc"><path d="M 0.246094 267 L 90 267 L 90 328 L 0.246094 328 Z M 0.246094 267 "/></clipPath></defs><g id="ee0a12d227"><path style=" stroke:none;fill-rule:nonzero;fill:#ffbd59;fill-opacity:1;" d="M 446.296875 297.367188 C 446.296875 299.800781 446.238281 302.234375 446.117188 304.664062 C 446 307.09375 445.820312 309.519531 445.582031 311.941406 C 445.34375 314.363281 445.042969 316.777344 444.6875 319.183594 C 444.332031 321.589844 443.914062 323.988281 443.441406 326.375 C 442.964844 328.761719 442.433594 331.136719 441.839844 333.496094 C 441.25 335.855469 440.601562 338.199219 439.894531 340.527344 C 439.1875 342.855469 438.425781 345.167969 437.605469 347.457031 C 436.785156 349.75 435.910156 352.019531 434.980469 354.265625 C 434.046875 356.515625 433.0625 358.738281 432.019531 360.9375 C 430.980469 363.136719 429.886719 365.3125 428.742188 367.457031 C 427.59375 369.601562 426.394531 371.71875 425.144531 373.808594 C 423.890625 375.894531 422.589844 377.949219 421.238281 379.972656 C 419.886719 381.996094 418.488281 383.984375 417.035156 385.9375 C 415.585938 387.894531 414.089844 389.8125 412.546875 391.691406 C 411.003906 393.574219 409.414062 395.414062 407.78125 397.21875 C 406.144531 399.019531 404.46875 400.78125 402.75 402.503906 C 401.027344 404.222656 399.265625 405.902344 397.460938 407.535156 C 395.660156 409.167969 393.816406 410.757812 391.9375 412.300781 C 390.054688 413.847656 388.136719 415.34375 386.183594 416.792969 C 384.230469 418.242188 382.242188 419.640625 380.21875 420.996094 C 378.195312 422.347656 376.136719 423.648438 374.050781 424.898438 C 371.964844 426.148438 369.847656 427.347656 367.703125 428.496094 C 365.554688 429.640625 363.382812 430.734375 361.183594 431.777344 C 358.984375 432.816406 356.757812 433.804688 354.511719 434.734375 C 352.261719 435.664062 349.992188 436.539062 347.703125 437.359375 C 345.410156 438.179688 343.101562 438.945312 340.773438 439.648438 C 338.445312 440.355469 336.101562 441.003906 333.738281 441.597656 C 331.378906 442.1875 329.007812 442.71875 326.621094 443.195312 C 324.234375 443.667969 321.835938 444.085938 319.429688 444.441406 C 317.023438 444.800781 314.609375 445.097656 312.1875 445.335938 C 309.765625 445.574219 307.339844 445.753906 304.910156 445.871094 C 302.476562 445.992188 300.046875 446.050781 297.613281 446.050781 C 295.179688 446.050781 292.746094 445.992188 290.316406 445.871094 C 287.886719 445.753906 285.460938 445.574219 283.039062 445.335938 C 280.617188 445.097656 278.203125 444.800781 275.796875 444.441406 C 273.390625 444.085938 270.992188 443.667969 268.605469 443.195312 C 266.21875 442.71875 263.847656 442.1875 261.484375 441.597656 C 259.125 441.003906 256.78125 440.355469 254.453125 439.648438 C 252.125 438.941406 249.8125 438.179688 247.523438 437.359375 C 245.230469 436.539062 242.960938 435.664062 240.714844 434.734375 C 238.464844 433.804688 236.242188 432.816406 234.042969 431.777344 C 231.84375 430.734375 229.667969 429.644531 227.523438 428.496094 C 225.378906 427.347656 223.261719 426.148438 221.175781 424.898438 C 219.085938 423.648438 217.03125 422.347656 215.007812 420.996094 C 212.984375 419.640625 210.996094 418.242188 209.042969 416.792969 C 207.085938 415.34375 205.167969 413.847656 203.289062 412.300781 C 201.40625 410.757812 199.566406 409.167969 197.761719 407.535156 C 195.960938 405.902344 194.199219 404.222656 192.476562 402.503906 C 190.757812 400.78125 189.078125 399.019531 187.445312 397.21875 C 185.8125 395.414062 184.222656 393.574219 182.679688 391.691406 C 181.132812 389.8125 179.636719 387.894531 178.1875 385.9375 C 176.738281 383.984375 175.339844 381.996094 173.988281 379.972656 C 172.632812 377.949219 171.332031 375.894531 170.082031 373.808594 C 168.832031 371.71875 167.632812 369.601562 166.484375 367.457031 C 165.339844 365.3125 164.246094 363.136719 163.203125 360.9375 C 162.164062 358.738281 161.179688 356.515625 160.246094 354.265625 C 159.316406 352.019531 158.441406 349.75 157.621094 347.457031 C 156.800781 345.167969 156.039062 342.855469 155.332031 340.527344 C 154.625 338.199219 153.976562 335.855469 153.382812 333.496094 C 152.792969 331.136719 152.261719 328.761719 151.785156 326.375 C 151.3125 323.988281 150.894531 321.589844 150.539062 319.183594 C 150.179688 316.777344 149.882812 314.363281 149.644531 311.941406 C 149.40625 309.519531 149.226562 307.09375 149.109375 304.664062 C 148.988281 302.234375 148.929688 299.800781 148.929688 297.367188 C 148.929688 294.933594 148.988281 292.503906 149.109375 290.074219 C 149.226562 287.640625 149.40625 285.214844 149.644531 282.792969 C 149.882812 280.371094 150.179688 277.957031 150.539062 275.550781 C 150.894531 273.144531 151.3125 270.746094 151.785156 268.359375 C 152.261719 265.972656 152.792969 263.601562 153.382812 261.242188 C 153.976562 258.878906 154.625 256.535156 155.332031 254.207031 C 156.039062 251.878906 156.800781 249.570312 157.621094 247.277344 C 158.441406 244.988281 159.316406 242.71875 160.246094 240.46875 C 161.179688 238.222656 162.164062 235.996094 163.203125 233.796875 C 164.246094 231.597656 165.339844 229.425781 166.484375 227.277344 C 167.632812 225.132812 168.832031 223.015625 170.082031 220.929688 C 171.332031 218.84375 172.632812 216.785156 173.988281 214.761719 C 175.339844 212.742188 176.738281 210.75 178.1875 208.796875 C 179.636719 206.84375 181.132812 204.925781 182.679688 203.042969 C 184.222656 201.164062 185.8125 199.320312 187.445312 197.519531 C 189.078125 195.714844 190.757812 193.953125 192.476562 192.234375 C 194.199219 190.511719 195.960938 188.835938 197.761719 187.199219 C 199.566406 185.566406 201.40625 183.976562 203.289062 182.433594 C 205.167969 180.890625 207.085938 179.394531 209.042969 177.945312 C 210.996094 176.496094 212.984375 175.09375 215.007812 173.742188 C 217.03125 172.390625 219.085938 171.089844 221.171875 169.835938 C 223.261719 168.585938 225.378906 167.386719 227.523438 166.242188 C 229.667969 165.09375 231.84375 164 234.042969 162.960938 C 236.242188 161.917969 238.464844 160.933594 240.714844 160 C 242.960938 159.070312 245.230469 158.195312 247.523438 157.375 C 249.8125 156.554688 252.125 155.792969 254.453125 155.085938 C 256.78125 154.378906 259.125 153.730469 261.484375 153.140625 C 263.847656 152.546875 266.21875 152.015625 268.605469 151.539062 C 270.992188 151.066406 273.390625 150.648438 275.796875 150.292969 C 278.203125 149.9375 280.617188 149.636719 283.039062 149.398438 C 285.460938 149.160156 287.886719 148.984375 290.316406 148.863281 C 292.746094 148.742188 295.179688 148.683594 297.613281 148.683594 C 300.046875 148.683594 302.476562 148.742188 304.910156 148.863281 C 307.339844 148.984375 309.765625 149.160156 312.1875 149.398438 C 314.609375 149.636719 317.023438 149.9375 319.429688 150.292969 C 321.835938 150.648438 324.234375 151.066406 326.621094 151.539062 C 329.007812 152.015625 331.378906 152.546875 333.738281 153.140625 C 336.101562 153.730469 338.445312 154.378906 340.773438 155.085938 C 343.101562 155.792969 345.410156 156.554688 347.703125 157.375 C 349.992188 158.195312 352.261719 159.070312 354.511719 160 C 356.757812 160.933594 358.984375 161.917969 361.183594 162.960938 C 363.382812 164 365.554688 165.09375 367.703125 166.242188 C 369.847656 167.386719 371.964844 168.585938 374.050781 169.835938 C 376.136719 171.089844 378.195312 172.390625 380.21875 173.742188 C 382.242188 175.09375 384.230469 176.496094 386.183594 177.945312 C 388.136719 179.394531 390.054688 180.890625 391.9375 182.433594 C 393.816406 183.976562 395.660156 185.566406 397.460938 187.199219 C 399.265625 188.835938 401.027344 190.511719 402.75 192.234375 C 404.46875 193.953125 406.144531 195.714844 407.78125 197.519531 C 409.414062 199.320312 411.003906 201.164062 412.546875 203.042969 C 414.089844 204.925781 415.585938 206.84375 417.035156 208.796875 C 418.488281 210.75 419.886719 212.742188 421.238281 214.761719 C 422.589844 216.785156 423.890625 218.84375 425.144531 220.929688 C 426.394531 223.015625 427.59375 225.132812 428.738281 227.277344 C 429.886719 229.425781 430.980469 231.597656 432.019531 233.796875 C 433.0625 235.996094 434.046875 238.222656 434.980469 240.46875 C 435.910156 242.71875 436.785156 244.988281 437.605469 247.277344 C 438.425781 249.570312 439.1875 251.878906 439.894531 254.207031 C 440.601562 256.535156 441.25 258.878906 441.839844 261.242188 C 442.433594 263.601562 442.964844 265.972656 443.441406 268.359375 C 443.914062 270.746094 444.332031 273.144531 444.6875 275.550781 C 445.042969 277.957031 445.34375 280.371094 445.582031 282.792969 C 445.820312 285.214844 446 287.640625 446.117188 290.074219 C 446.238281 292.503906 446.296875 294.933594 446.296875 297.367188 Z M 446.296875 297.367188 "/><path style=" stroke:none;fill-rule:nonzero;fill:#ffbd59;fill-opacity:1;" d="M 297.613281 89.199219 C 281.191406 89.199219 267.875 75.886719 267.875 59.460938 L 267.875 29.738281 C 267.875 13.316406 281.191406 0 297.613281 0 C 314.035156 0 327.347656 13.316406 327.347656 29.738281 L 327.347656 59.460938 C 327.347656 75.886719 314.035156 89.199219 297.613281 89.199219 Z M 297.613281 89.199219 "/><path style=" stroke:none;fill-rule:nonzero;fill:#ffbd59;fill-opacity:1;" d="M 465.839844 158.878906 C 458.230469 158.878906 450.625 155.980469 444.816406 150.175781 C 433.199219 138.566406 433.199219 119.738281 444.800781 108.121094 L 465.8125 87.101562 C 477.425781 75.484375 496.257812 75.480469 507.875 87.089844 C 519.492188 98.699219 519.492188 117.527344 507.890625 129.144531 L 486.878906 150.164062 C 481.070312 155.976562 473.449219 158.878906 465.839844 158.878906 Z M 465.839844 158.878906 "/><g clip-rule="nonzero" clip-path="url(#512cc442e9)"><path style=" stroke:none;fill-rule:nonzero;fill:#ffbd59;fill-opacity:1;" d="M 565.242188 327.105469 L 535.523438 327.105469 C 519.097656 327.105469 505.785156 313.789062 505.785156 297.367188 C 505.785156 280.945312 519.097656 267.632812 535.523438 267.632812 L 565.242188 267.632812 C 581.667969 267.632812 594.980469 280.945312 594.980469 297.367188 C 594.980469 313.789062 581.667969 327.105469 565.242188 327.105469 Z M 565.242188 327.105469 "/></g><path style=" stroke:none;fill-rule:nonzero;fill:#ffbd59;fill-opacity:1;" d="M 486.851562 516.351562 C 479.242188 516.351562 471.621094 513.445312 465.8125 507.632812 L 444.800781 486.613281 C 433.199219 474.996094 433.199219 456.167969 444.816406 444.558594 C 456.433594 432.953125 475.265625 432.949219 486.878906 444.570312 L 507.890625 465.59375 C 519.492188 477.207031 519.492188 496.035156 507.875 507.644531 C 502.066406 513.449219 494.460938 516.351562 486.851562 516.351562 Z M 486.851562 516.351562 "/><g clip-rule="nonzero" clip-path="url(#16d3bf8c71)"><path style=" stroke:none;fill-rule:nonzero;fill:#ffbd59;fill-opacity:1;" d="M 297.613281 594.734375 C 281.191406 594.734375 267.875 581.421875 267.875 565 L 267.875 535.273438 C 267.875 518.851562 281.191406 505.535156 297.613281 505.535156 C 314.035156 505.535156 327.347656 518.851562 327.347656 535.273438 L 327.347656 565 C 327.347656 581.421875 314.035156 594.734375 297.613281 594.734375 Z M 297.613281 594.734375 "/></g><path style=" stroke:none;fill-rule:nonzero;fill:#ffbd59;fill-opacity:1;" d="M 108.375 516.351562 C 100.765625 516.351562 93.15625 513.449219 87.351562 507.644531 C 75.734375 496.035156 75.734375 477.207031 87.335938 465.59375 L 108.34375 444.570312 C 119.960938 432.949219 138.792969 432.953125 150.410156 444.558594 C 162.027344 456.167969 162.027344 474.996094 150.425781 486.613281 L 129.414062 507.632812 C 123.605469 513.441406 115.984375 516.351562 108.375 516.351562 Z M 108.375 516.351562 "/><g clip-rule="nonzero" clip-path="url(#bab6b5eabc)"><path style=" stroke:none;fill-rule:nonzero;fill:#ffbd59;fill-opacity:1;" d="M 59.703125 327.105469 L 29.980469 327.105469 C 13.558594 327.105469 0.246094 313.789062 0.246094 297.367188 C 0.246094 280.945312 13.558594 267.632812 29.980469 267.632812 L 59.703125 267.632812 C 76.125 267.632812 89.441406 280.945312 89.441406 297.367188 C 89.441406 313.789062 76.125 327.105469 59.703125 327.105469 Z M 59.703125 327.105469 "/></g><path style=" stroke:none;fill-rule:nonzero;fill:#ffbd59;fill-opacity:1;" d="M 129.382812 158.878906 C 121.777344 158.878906 114.152344 155.976562 108.34375 150.164062 L 87.335938 129.144531 C 75.734375 117.527344 75.734375 98.699219 87.351562 87.089844 C 98.964844 75.480469 117.796875 75.476562 129.414062 87.101562 L 150.425781 108.121094 C 162.027344 119.738281 162.027344 138.566406 150.410156 150.175781 C 144.601562 155.980469 136.992188 158.878906 129.382812 158.878906 Z M 129.382812 158.878906 "/></g></svg>